<svg xmlns="http://www.w3.org/2000/svg" width="400" height="400" fill="none"><path fill="red" fill-rule="evenodd" d="M16 381 48 67l337-46-33 312z" clip-rule="evenodd"/><path fill="#000" d="M266 292v-13c16-2 19-4 19-27v-67c0-32-15-38-26-38q-11-1-29 14v93c0 21 4 23 19 25v13h-85v-13c17-2 19-2 19-25v-70q-3-40-25-37-13 0-29 12v95c0 21 2 23 16 25v13H57v-13c23-2 25-4 25-27v-82c0-21-2-24-19-28v-10l64-15v29l25-16q17-11 33-13 30 2 41 30l27-19q14-9 29-11 50 2 51 63v74c0 21 2 23 21 25v13z"/><path fill="#fff" d="M254 284v-11c18-2 19-4 19-29v-67c0-30-13-38-26-38q-10 0-29 14l2 15v78c0 23 2 25 19 27v11h-85v-11c17-2 19-4 19-27v-70q-4-39-27-37-13 0-29 14v93c0 23 2 25 18 27v11H47v-11c21-4 23-4 23-29v-80c0-23-2-26-19-28v-12q29-3 66-15v30l23-17q17-11 33-11 32 2 41 28l27-19q13-9 31-9 49 1 49 61v74c0 23 2 23 21 27v11z"/></svg>