<svg xmlns="http://www.w3.org/2000/svg" width="400" height="400" fill="none"><g clip-path="url(#a)"><path fill="#5281c4" fill-rule="evenodd" d="M16 381 48 67l337-46-33 312z" clip-rule="evenodd"/><path fill="#000" d="M266 292v-13c16-2 19-4 19-27v-67c0-32-15-38-26-38q-11-1-29 14v93c0 21 4 23 19 25v13h-85v-13c17-2 19-2 19-25v-70q-3-40-25-37-13 0-29 12v95c0 21 2 23 16 25v13H57v-13c23-2 25-4 25-27v-82c0-21-2-24-19-28v-10l64-15v29l25-16q17-11 33-13 30 2 41 30l27-19q14-9 29-11 50 2 51 63v74c0 21 2 23 21 25v13z"/><path fill="#fff" d="m254 284 4-9c17-2 15-6 15-31v-67c0-30-13-38-26-38q-10 0-29 14l2 15v78c0 23 2 25 19 27v11h-85v-11c17-2 19-4 19-27v-70q-4-39-27-37-13 0-29 14v93c0 23 2 25 18 27v11H47v-11c21-4 23-4 23-29v-80c0-23-2-26-19-28v-12q29-3 66-15v30l23-17q17-11 33-11 32 2 41 28l27-19q13-9 31-9 49 1 49 61v74c0 23 2 23 21 27v11z"/><path fill="#c58253" d="m68 400 391-263 65 97-391 263z"/><path fill="#000" d="m237 392-31-45 18-12q5-4 9-5l8 1q3 1 5 5l3 5-1 5-3 5h1l5-2 6 1q4 2 6 5l3 8-3 8q-1 4-7 7zm4-15 8-5 5-6-1-5-4-3h-4l-4 2-8 5zm-13-18 7-5 3-3 1-4-1-3q-1-3-4-3l-6 2-7 5zm50 4-32-44 30-21 6 7-21 15 8 10 19-13 5 8-19 13 8 11 20-15 6 8zm9-62-5-7 37-26 5 8-14 9 26 37-9 6-26-36zm71 5-10 8-16-56 12-8 47 33-10 7-36-26zm-13-17 24-16 5 7-24 17z"/><path fill="#fff" d="m234 391-31-44 18-13 9-4 8 1 6 4 2 6-1 5q0 3-3 5h1l5-2 7 1 5 5q3 3 3 8l-2 8q-3 4-8 7zm4-14 8-5q4-3 5-6l-1-5-3-3h-5l-4 2-8 5zm-12-18 7-5 3-3 1-4-2-3q-1-3-4-3t-6 2l-7 5zm49 4-31-44 29-22 6 8-21 15 8 10 19-13 5 8-19 13 8 11 20-15 6 8zm10-62-6-8 37-25 5 7-13 10 25 37-9 6-26-36zm70 5-10 7-16-55 12-8 47 33-10 7-35-26h-1zm-13-17 24-17 5 8-24 17z"/></g><defs><clipPath id="a"><path fill="#fff" d="M0 0h400v400H0z"/></clipPath></defs></svg>